<svg width="112" height="75" viewBox="0 0 112 75" fill="none" xmlns="http://www.w3.org/2000/svg">
<path d="M18.2333 36V15H9C6.66667 17.2 4.3 18 2 18V25.7333C4.3 25.7333 7 25.5 9 23.8333V36H1.33333V43H24.1667V36H18.2333ZM40.7792 43.7333C49.5125 43.7333 53.9792 39.8333 53.9792 33.5333C53.9792 27.3667 49.2125 24.4 43.7125 24.4C40.4125 24.4 38.6125 25.2 37.7792 25.7667L38.5792 21.9667H51.6125V15H31.7458L28.5792 31.4667H36.7125C37.3125 30.7667 38.4125 29.6667 41.0125 29.6667C44.0125 29.6667 45.3458 31.1 45.3458 33.0333C45.3458 34.8333 44.0125 36.5333 40.7125 36.5333C38.5458 36.5333 36.8458 35.7667 36.5125 33.8333H28.3125C28.1792 40.4333 32.2458 43.7333 40.7792 43.7333ZM86.2458 43L73.9458 27.4333L85.6125 15H78.0792L65.3458 28.4333H64.8458V15H58.2458V43H64.8458V36.4667L69.6792 31.4667H70.1458L79.3125 43H86.2458ZM110.293 26.3333H102.893V18.9H97.2932V26.3333H89.8932V31.6667H97.2932V39.0667H102.893V31.6667H110.293V26.3333Z" fill="black"/>
<path d="M0.6 66L5.76 52H7.54L12.68 66H10.9L9.62 62.4H3.66L2.36 66H0.6ZM4.16 61.04H9.12L6.64 54.12L4.16 61.04ZM14.6613 66V56.08H16.1813L16.3213 57.98C16.6279 57.3267 17.0946 56.8067 17.7213 56.42C18.3479 56.0333 19.1213 55.84 20.0413 55.84V57.6H19.5813C18.9946 57.6 18.4546 57.7067 17.9613 57.92C17.4679 58.12 17.0746 58.4667 16.7813 58.96C16.4879 59.4533 16.3413 60.1333 16.3413 61V66H14.6613ZM25.8469 66C24.9402 66 24.2269 65.78 23.7069 65.34C23.1869 64.9 22.9269 64.1067 22.9269 62.96V57.5H21.2069V56.08H22.9269L23.1469 53.7H24.6069V56.08H27.5269V57.5H24.6069V62.96C24.6069 63.5867 24.7335 64.0133 24.9869 64.24C25.2402 64.4533 25.6869 64.56 26.3269 64.56H27.3669V66H25.8469ZM30.6813 53.88C30.3479 53.88 30.0679 53.7733 29.8413 53.56C29.6279 53.3333 29.5213 53.0533 29.5213 52.72C29.5213 52.4 29.6279 52.1333 29.8413 51.92C30.0679 51.7067 30.3479 51.6 30.6813 51.6C31.0013 51.6 31.2746 51.7067 31.5013 51.92C31.7279 52.1333 31.8413 52.4 31.8413 52.72C31.8413 53.0533 31.7279 53.3333 31.5013 53.56C31.2746 53.7733 31.0013 53.88 30.6813 53.88ZM29.8413 66V56.08H31.5213V66H29.8413ZM38.2464 66.24C37.0597 66.24 36.0731 65.94 35.2864 65.34C34.4997 64.74 34.0397 63.9267 33.9064 62.9H35.6264C35.7331 63.42 36.0064 63.8733 36.4464 64.26C36.8997 64.6333 37.5064 64.82 38.2664 64.82C38.9731 64.82 39.4931 64.6733 39.8264 64.38C40.1597 64.0733 40.3264 63.7133 40.3264 63.3C40.3264 62.7 40.1064 62.3 39.6664 62.1C39.2397 61.9 38.6331 61.72 37.8464 61.56C37.3131 61.4533 36.7797 61.3 36.2464 61.1C35.7131 60.9 35.2664 60.62 34.9064 60.26C34.5464 59.8867 34.3664 59.4 34.3664 58.8C34.3664 57.9333 34.6864 57.2267 35.3264 56.68C35.9797 56.12 36.8597 55.84 37.9664 55.84C39.0197 55.84 39.8797 56.1067 40.5464 56.64C41.2264 57.16 41.6197 57.9067 41.7264 58.88H40.0664C39.9997 58.3733 39.7797 57.98 39.4064 57.7C39.0464 57.4067 38.5597 57.26 37.9464 57.26C37.3464 57.26 36.8797 57.3867 36.5464 57.64C36.2264 57.8933 36.0664 58.2267 36.0664 58.64C36.0664 59.04 36.2731 59.3533 36.6864 59.58C37.1131 59.8067 37.6864 60 38.4064 60.16C39.0197 60.2933 39.5997 60.46 40.1464 60.66C40.7064 60.8467 41.1597 61.1333 41.5064 61.52C41.8664 61.8933 42.0464 62.44 42.0464 63.16C42.0597 64.0533 41.7197 64.7933 41.0264 65.38C40.3464 65.9533 39.4197 66.24 38.2464 66.24ZM47.9172 66C47.0105 66 46.2972 65.78 45.7772 65.34C45.2572 64.9 44.9972 64.1067 44.9972 62.96V57.5H43.2772V56.08H44.9972L45.2172 53.7H46.6772V56.08H49.5972V57.5H46.6772V62.96C46.6772 63.5867 46.8039 64.0133 47.0572 64.24C47.3105 64.4533 47.7572 64.56 48.3972 64.56H49.4372V66H47.9172Z" fill="#565656"/>
</svg>
