<svg width="116" height="75" viewBox="0 0 116 75" fill="none" xmlns="http://www.w3.org/2000/svg">
<path d="M13.4333 14.2667C4.93333 14.2667 0.666667 18.1667 0.666667 24C0.666667 30.3 5.7 32.9333 11.8667 32.9333C14.3 32.9333 16.5333 32.6333 18.0667 31.8C18.2333 36.0667 15.4333 36.8667 13.1 36.8667C10.9667 36.8667 8.93333 36.2333 8.56667 34.4H1.23333C1.06667 40.7333 5.83333 43.7333 13.1 43.7333C20.4667 43.7333 26.7333 40.0667 26.7333 29.1333C26.7333 21.1333 24 14.2667 13.4333 14.2667ZM13.5333 27.3333C10.5667 27.3333 8.96667 26.1 8.96667 24.2333C8.96667 22.4333 10.5667 21.0667 13.5333 21.0667C16.5 21.0667 18 22.4333 18 24.2333C18 26.2333 16.4667 27.3333 13.5333 27.3333ZM43.6828 43.7333C53.9161 43.7333 57.1495 39.4333 57.1495 34.8667C57.1495 31.6333 55.5161 29.2333 52.3495 27.6V27.0667C54.0161 26.0333 55.1828 24.0333 55.1828 21.8667C55.1828 17.5333 51.5495 14.2667 43.6828 14.2667C35.8161 14.2667 32.2495 17.5333 32.2495 21.8667C32.2495 24.0333 33.3495 26.0333 35.0161 27.0667V27.6C31.8495 29.2333 30.2161 31.6333 30.2161 34.8667C30.2161 39.4333 33.4495 43.7333 43.6828 43.7333ZM43.6828 25.3333C41.3161 25.3333 40.3161 24.4 40.3161 22.9667C40.3161 21.4 41.5161 20.5333 43.6828 20.5333C45.8495 20.5333 47.0495 21.4 47.0495 22.9667C47.0495 24.4 46.0495 25.3333 43.6828 25.3333ZM43.6828 36.8C40.2828 36.8 39.1828 35.4 39.1828 33.7C39.1828 32.0333 40.3161 30.6 43.6828 30.6C47.0495 30.6 48.1828 32.0333 48.1828 33.7C48.1828 35.4 47.0828 36.8 43.6828 36.8ZM89.4099 43L77.1099 27.4333L88.7766 15H81.2432L68.5099 28.4333H68.0099V15H61.4099V43H68.0099V36.4667L72.8432 31.4667H73.3099L82.4766 43H89.4099ZM113.457 26.3333H106.057V18.9H100.457V26.3333H93.0573V31.6667H100.457V39.0667H106.057V31.6667H113.457V26.3333Z" fill="black"/>
<path d="M0.6 66L5.76 52H7.54L12.68 66H10.9L9.62 62.4H3.66L2.36 66H0.6ZM4.16 61.04H9.12L6.64 54.12L4.16 61.04ZM14.6613 66V56.08H16.1813L16.3213 57.98C16.6279 57.3267 17.0946 56.8067 17.7213 56.42C18.3479 56.0333 19.1213 55.84 20.0413 55.84V57.6H19.5813C18.9946 57.6 18.4546 57.7067 17.9613 57.92C17.4679 58.12 17.0746 58.4667 16.7813 58.96C16.4879 59.4533 16.3413 60.1333 16.3413 61V66H14.6613ZM25.8469 66C24.9402 66 24.2269 65.78 23.7069 65.34C23.1869 64.9 22.9269 64.1067 22.9269 62.96V57.5H21.2069V56.08H22.9269L23.1469 53.7H24.6069V56.08H27.5269V57.5H24.6069V62.96C24.6069 63.5867 24.7335 64.0133 24.9869 64.24C25.2402 64.4533 25.6869 64.56 26.3269 64.56H27.3669V66H25.8469ZM31.6613 66L28.7613 56.08H30.4413L32.5413 63.86L34.8613 56.08H36.7613L39.1013 63.86L41.1813 56.08H42.8813L39.9813 66H38.2613L35.8213 57.82L33.3813 66H31.6613ZM48.8883 66.24C47.9549 66.24 47.1149 66.0267 46.3683 65.6C45.6216 65.1733 45.0283 64.5733 44.5883 63.8C44.1616 63.0133 43.9483 62.0933 43.9483 61.04C43.9483 59.9867 44.1683 59.0733 44.6083 58.3C45.0483 57.5133 45.6416 56.9067 46.3883 56.48C47.1483 56.0533 47.9949 55.84 48.9283 55.84C49.8616 55.84 50.7016 56.0533 51.4483 56.48C52.1949 56.9067 52.7816 57.5133 53.2083 58.3C53.6483 59.0733 53.8683 59.9867 53.8683 61.04C53.8683 62.0933 53.6483 63.0133 53.2083 63.8C52.7683 64.5733 52.1683 65.1733 51.4083 65.6C50.6616 66.0267 49.8216 66.24 48.8883 66.24ZM48.8883 64.8C49.4616 64.8 49.9949 64.66 50.4883 64.38C50.9816 64.1 51.3816 63.68 51.6883 63.12C51.9949 62.56 52.1483 61.8667 52.1483 61.04C52.1483 60.2133 51.9949 59.52 51.6883 58.96C51.3949 58.4 51.0016 57.98 50.5083 57.7C50.0149 57.42 49.4883 57.28 48.9283 57.28C48.3549 57.28 47.8216 57.42 47.3283 57.7C46.8349 57.98 46.4349 58.4 46.1283 58.96C45.8216 59.52 45.6683 60.2133 45.6683 61.04C45.6683 61.8667 45.8216 62.56 46.1283 63.12C46.4349 63.68 46.8283 64.1 47.3083 64.38C47.8016 64.66 48.3283 64.8 48.8883 64.8ZM56.2042 66V56.08H57.7242L57.8642 57.98C58.1709 57.3267 58.6376 56.8067 59.2642 56.42C59.8909 56.0333 60.6642 55.84 61.5842 55.84V57.6H61.1242C60.5376 57.6 59.9976 57.7067 59.5042 57.92C59.0109 58.12 58.6176 58.4667 58.3242 58.96C58.0309 59.4533 57.8842 60.1333 57.8842 61V66H56.2042ZM63.4698 66V51.6H65.1498V60.26L69.2098 56.08H71.2698L66.8698 60.56L71.8298 66H69.6898L65.1498 60.86V66H63.4698Z" fill="#565656"/>
</svg>
