<svg width="112" height="75" viewBox="0 0 112 75" fill="none" xmlns="http://www.w3.org/2000/svg">
<path d="M18.2333 36V15H9C6.66667 17.2 4.3 18 2 18V25.7333C4.3 25.7333 7 25.5 9 23.8333V36H1.33333V43H24.1667V36H18.2333ZM53.5229 23.3667C53.5229 17.3667 48.8563 14.2667 40.8563 14.2667C32.4896 14.2667 28.2562 17.8667 28.2562 24.6333H37.2562C37.1896 21.9667 39.6229 21.6 41.2563 21.6C43.7229 21.6 44.5229 22.5667 44.5229 23.8333C44.5229 28.2 27.9896 26.8667 27.9896 38.8333V43H53.4229V36H38.7896C41.3229 31.3667 53.5229 33 53.5229 23.3667ZM85.7771 43L73.4771 27.4333L85.1438 15H77.6104L64.8771 28.4333H64.3771V15H57.7771V43H64.3771V36.4667L69.2104 31.4667H69.6771L78.8438 43H85.7771ZM109.824 26.3333H102.424V18.9H96.8245V26.3333H89.4245V31.6667H96.8245V39.0667H102.424V31.6667H109.824V26.3333Z" fill="black"/>
<path d="M0.6 66L5.76 52H7.54L12.68 66H10.9L9.62 62.4H3.66L2.36 66H0.6ZM4.16 61.04H9.12L6.64 54.12L4.16 61.04ZM18.0664 66.24C16.8931 66.24 15.9597 65.8867 15.2664 65.18C14.5731 64.46 14.2264 63.36 14.2264 61.88V56.08H15.9064V61.7C15.9064 63.7667 16.7531 64.8 18.4464 64.8C19.3131 64.8 20.0264 64.4933 20.5864 63.88C21.1597 63.2533 21.4464 62.3667 21.4464 61.22V56.08H23.1264V66H21.6064L21.4864 64.22C21.1797 64.8467 20.7197 65.34 20.1064 65.7C19.5064 66.06 18.8264 66.24 18.0664 66.24ZM30.4517 66.24C29.5051 66.24 28.6517 66.0267 27.8917 65.6C27.1451 65.16 26.5517 64.5533 26.1117 63.78C25.6851 62.9933 25.4717 62.08 25.4717 61.04C25.4717 60 25.6851 59.0933 26.1117 58.32C26.5517 57.5333 27.1451 56.9267 27.8917 56.5C28.6517 56.06 29.5051 55.84 30.4517 55.84C31.6251 55.84 32.6117 56.1467 33.4117 56.76C34.2251 57.3733 34.7384 58.1933 34.9517 59.22H33.2317C33.0984 58.6067 32.7717 58.1333 32.2517 57.8C31.7317 57.4533 31.1251 57.28 30.4317 57.28C29.8717 57.28 29.3451 57.42 28.8517 57.7C28.3584 57.98 27.9584 58.4 27.6517 58.96C27.3451 59.52 27.1917 60.2133 27.1917 61.04C27.1917 61.8667 27.3451 62.56 27.6517 63.12C27.9584 63.68 28.3584 64.1067 28.8517 64.4C29.3451 64.68 29.8717 64.82 30.4317 64.82C31.1251 64.82 31.7317 64.6533 32.2517 64.32C32.7717 63.9733 33.0984 63.4867 33.2317 62.86H34.9517C34.7517 63.86 34.2451 64.6733 33.4317 65.3C32.6184 65.9267 31.6251 66.24 30.4517 66.24ZM40.9445 66C40.0379 66 39.3245 65.78 38.8045 65.34C38.2845 64.9 38.0245 64.1067 38.0245 62.96V57.5H36.3045V56.08H38.0245L38.2445 53.7H39.7045V56.08H42.6245V57.5H39.7045V62.96C39.7045 63.5867 39.8312 64.0133 40.0845 64.24C40.3379 64.4533 40.7845 64.56 41.4245 64.56H42.4645V66H40.9445ZM45.7789 53.88C45.4456 53.88 45.1656 53.7733 44.9389 53.56C44.7256 53.3333 44.6189 53.0533 44.6189 52.72C44.6189 52.4 44.7256 52.1333 44.9389 51.92C45.1656 51.7067 45.4456 51.6 45.7789 51.6C46.0989 51.6 46.3722 51.7067 46.5989 51.92C46.8256 52.1333 46.9389 52.4 46.9389 52.72C46.9389 53.0533 46.8256 53.3333 46.5989 53.56C46.3722 53.7733 46.0989 53.88 45.7789 53.88ZM44.9389 66V56.08H46.6189V66H44.9389ZM54.0641 66.24C53.1307 66.24 52.2907 66.0267 51.5441 65.6C50.7974 65.1733 50.2041 64.5733 49.7641 63.8C49.3374 63.0133 49.1241 62.0933 49.1241 61.04C49.1241 59.9867 49.3441 59.0733 49.7841 58.3C50.2241 57.5133 50.8174 56.9067 51.5641 56.48C52.3241 56.0533 53.1707 55.84 54.1041 55.84C55.0374 55.84 55.8774 56.0533 56.6241 56.48C57.3707 56.9067 57.9574 57.5133 58.3841 58.3C58.8241 59.0733 59.0441 59.9867 59.0441 61.04C59.0441 62.0933 58.8241 63.0133 58.3841 63.8C57.9441 64.5733 57.3441 65.1733 56.5841 65.6C55.8374 66.0267 54.9974 66.24 54.0641 66.24ZM54.0641 64.8C54.6374 64.8 55.1707 64.66 55.6641 64.38C56.1574 64.1 56.5574 63.68 56.8641 63.12C57.1707 62.56 57.3241 61.8667 57.3241 61.04C57.3241 60.2133 57.1707 59.52 56.8641 58.96C56.5707 58.4 56.1774 57.98 55.6841 57.7C55.1907 57.42 54.6641 57.28 54.1041 57.28C53.5307 57.28 52.9974 57.42 52.5041 57.7C52.0107 57.98 51.6107 58.4 51.3041 58.96C50.9974 59.52 50.8441 60.2133 50.8441 61.04C50.8441 61.8667 50.9974 62.56 51.3041 63.12C51.6107 63.68 52.0041 64.1 52.4841 64.38C52.9774 64.66 53.5041 64.8 54.0641 64.8ZM61.38 66V56.08H62.9L63 57.86C63.32 57.2333 63.78 56.74 64.38 56.38C64.98 56.02 65.66 55.84 66.42 55.84C67.5933 55.84 68.5267 56.2 69.22 56.92C69.9267 57.6267 70.28 58.72 70.28 60.2V66H68.6V60.38C68.6 58.3133 67.7467 57.28 66.04 57.28C65.1867 57.28 64.4733 57.5933 63.9 58.22C63.34 58.8333 63.06 59.7133 63.06 60.86V66H61.38Z" fill="#565656"/>
</svg>
